<?xml version="1.0" encoding="utf-8"?>
<!-- Generator: Adobe Illustrator 27.5.0, SVG Export Plug-In . SVG Version: 6.00 Build 0)  -->
<svg version="1.1" xmlns="http://www.w3.org/2000/svg" xmlns:xlink="http://www.w3.org/1999/xlink" x="0px" y="0px"
	 viewBox="0 0 500 500" style="enable-background:new 0 0 500 500;" xml:space="preserve">

<g id="OBJECTS">
	<g>
		<g>
			<g id="layer-back" class="gaucho-layer" data-depth="0.2">
				<circle style="fill:#F9BC3D;" cx="252.618" cy="282.831" r="204.699"/>
				<g>
					<path style="fill:#FFD173;" d="M51.378,322.041c-1.669-7.347-2.954-14.797-3.811-22.31c-0.411-3.758-0.698-7.531-0.897-11.311
						c-0.098-1.89-0.167-3.782-0.215-5.675l0.003-5.682c0.037-15.157,1.726-30.355,5.072-45.23
						c6.979-29.693,20.838-57.779,39.93-81.79l3.699-4.407l1.853-2.203l0.927-1.102l0.977-1.057l3.911-4.227l1.959-2.112
						l2.054-2.019l4.131-4.018c0.68-0.68,1.392-1.324,2.12-1.951l2.163-1.904l4.334-3.802l4.506-3.598
						c12.061-9.53,25.129-17.854,39.045-24.478c27.818-13.274,58.64-20.204,89.479-20.291c30.836,0.102,61.663,7.012,89.473,20.304
						c13.916,6.623,26.982,14.946,39.043,24.475l4.506,3.598l4.334,3.802l2.164,1.904c0.728,0.626,1.44,1.271,2.12,1.951
						l4.125,4.024l2.054,2.019l1.959,2.112l3.911,4.226l0.977,1.057l0.927,1.101l1.853,2.203l3.699,4.406
						c19.09,24.007,32.96,52.088,39.932,81.781c3.348,14.874,5.04,30.071,5.079,45.227l0.004,5.681
						c-0.047,1.893-0.116,3.785-0.214,5.675c-0.198,3.78-0.483,7.553-0.896,11.311c-0.855,7.513-2.139,14.963-3.806,22.311
						l-0.574-0.111c2.812-14.747,4.111-29.806,3.556-44.813c-0.419-15.007-2.471-29.967-6.135-44.525
						c-7.37-29.12-21.399-56.461-40.445-79.65c-19.191-23.064-43.352-42.035-70.521-54.794
						c-27.152-12.773-57.123-19.445-87.125-19.43c-30.001-0.01-59.972,6.658-87.124,19.431
						c-27.17,12.757-51.33,31.729-70.521,54.793C75.928,176.13,61.9,203.472,54.53,232.591c-3.663,14.559-5.715,29.519-6.134,44.525
						c-0.555,15.007,0.744,30.066,3.555,44.813L51.378,322.041z"/>
				</g>
			</g>
			<g id="layer-desk" class="gaucho-layer" data-depth="0.4">
				<defs>
					<path id="SVGID_1_" d="M500,327.685v83.23H0v-170.78c38.58,0.53,130.82,3.04,138.68,14.94c11.62,17.61-33.5,69.15-14.55,83.12
						c67.43,49.69,247.88-26.3,340.34-20.25C475.98,318.695,488.02,322.295,500,327.685z"/>
				</defs>
				<use xlink:href="#SVGID_1_"  style="overflow:visible;fill:#763424;"/>
				<clipPath id="SVGID_00000154402403036087790040000004934165235869114496_">
					<use xlink:href="#SVGID_1_"  style="overflow:visible;"/>
				</clipPath>
				<g style="clip-path:url(#SVGID_00000154402403036087790040000004934165235869114496_);">
					<path style="fill:none;stroke:#99432F;stroke-width:1.5;stroke-miterlimit:10;" d="M214.761,418.204
						c-9.954-25.819-31.912-33.191-56.167-36.923c-42.388-6.521-61.021-5.97-72.911-20.231c-3.906-4.685-6.554-10.356-8.482-16.154
						c-4.892-14.711-0.817-19.371,8.499-30.863c6.43-7.931,14.909-16.055,9.319-22.468c-6.511-7.469-66.638-9.574-118.014,0.017"/>
					<path style="fill:none;stroke:#99432F;stroke-width:1.5;stroke-miterlimit:10;" d="M-8.769,320.507
						c6.381-1.096,12.795-2.023,19.245-2.6c5.758-0.514,23.82-1.186,29.396,0.825c10.946,3.948,0.771,17.788-1.463,27.507
						c-3.388,14.738-22.281,48.987,44.867,67.417"/>
					<path style="fill:none;stroke:#99432F;stroke-width:1.5;stroke-miterlimit:10;" d="M296.985,425.05
						c19.15-5.758,37.201-16.058,55.479-25.256c22.609-11.377,45.561-21.792,69.016-30.088
						c31.925-11.292,65.566-19.596,96.348,1.096"/>
					<path style="fill:none;stroke:#99432F;stroke-width:1.5;stroke-miterlimit:10;" d="M210.579,339.975
						c-3.699,13.043,3.848,27.396,15.183,34.835c11.335,7.439,25.561,9.085,39.1,8.367c25.043-1.329,49.146-9.973,71.911-20.493
						c22.765-10.52,44.616-22.999,67.736-32.715c20.028-8.417,40.945-14.712,62.287-18.771"/>
					<path style="fill:none;stroke:#99432F;stroke-width:1.5;stroke-miterlimit:10;" d="M72.296,238.271
						c-19.321-0.856-24.264,3.205-23.823,7.692c0.61,6.2,7.445,9.653,13.513,11.066c12.489,2.908,25.415,3.202,38.178,4.443
						c26.643,2.59,35.834,6.641,43.337,13.217"/>
				</g>
			</g>
			<path style="fill:#4D2217;" d="M500,392.645v107.36H0v-99.04c9.153-1.354,63.425-13.333,124.13-0.67
				c59.74,12.46,204.477,8.288,256.369,2.526C424.772,397.905,459.424,390.949,500,392.645z"/>
		</g>
		<g id="layer-char" class="gaucho-layer" data-depth="0.8">
			<path style="fill:#CCCC6C;" d="M363.63,302.835c-3.98-6.7-8.87-12.93-14.06-18.9c-1.87-2.17-3.78-4.3-5.7-6.41
				c-0.21-0.23-0.42-0.46-0.62-0.69c-1.58-1.72-3.16-3.43-4.72-5.12c-1.3-1.41-2.6-2.81-3.93-4.21
				c-9.01-9.55-18.61-18.84-29.15-26.66h-0.01c-0.98-0.73-1.97-1.45-2.97-2.15c-3.18-2.22-6.71-3.85-10.39-4.83
				c-2.47-0.67-5.01-1.04-7.57-1.12c-0.11-0.01-0.21-0.01-0.32-0.01c-5.03-0.11-10.13,0.92-14.86,3.19
				c-1.67,0.79-3.3,1.74-4.86,2.85c-0.64,0.45-1.25,0.92-1.85,1.42c-0.32,0.25-0.63,0.52-0.94,0.79c-1.08,0.96-2.09,1.97-3.01,3.04
				c-0.84,0.96-1.61,1.96-2.32,2.99c-0.27,0.39-0.53,0.79-0.79,1.2c-5.39,8.65-6.54,19.48-2.84,29.15c0.96,2.56,2.27,5.03,3.92,7.36
				l0.16,0.23c2.94,4.14,6.13,8.11,9.48,11.96c0.29,0.33,0.57,0.66,0.86,0.98c5.53,6.28,11.46,12.23,17.36,18.08
				c2.48,2.47,6.45,6.21,9.78,9.32c3.22,3,5.84,5.41,5.99,5.54c-0.08,0.34-1.43,6.04-1.44,6.09c-1.75,7.38-3.39,14.86-4.79,22.39
				c-0.15,0.79-0.3,1.59-0.44,2.38c-0.37,2.07-0.73,4.13-1.05,6.21c-1.44,8.99-2.49,18.03-2.94,27.05l-0.01,0.16
				c-0.16,3.7,0.84,7.43,2.95,10.59c0.9,1.37,2.01,2.62,3.33,3.73c0.6,0.5,1.21,0.96,1.85,1.37c0.06,0.04,0.12,0.07,0.18,0.11
				c3.41,2.12,7.34,2.96,11.15,2.58c0.13-0.02,0.27-0.03,0.41-0.05c2.5-0.31,4.94-1.16,7.13-2.53c0.31-0.18,0.61-0.38,0.9-0.6
				c1.2-0.84,2.3-1.86,3.29-3.03c4.77-5.67,8.99-11.53,13.08-17.46c4.06-5.94,7.89-11.98,11.6-18.09
				C356.89,352.895,376.93,325.225,363.63,302.835z"/>
			<g>
				<path style="fill:#FFFFB3;" d="M315.153,361.695h-146.15l-17.88-72c-5.18-24.81,5.17-50.93,27.02-63.77
					c8.84-5.19,19.11-8.17,30.04-8.17h43.26c32.79,0,59.63,26.83,59.63,59.63L315.153,361.695z"/>
				<path style="fill:#CCCC6C;" d="M219.333,361.695h-50.33l-17.88-72c-2.63-12.61-1.25-25.57,3.61-36.94L219.333,361.695z"/>
				<g>
					<path style="fill:#CCCC6C;" d="M274.555,268.112c0.124,2.237-1.59,4.051-3.827,4.051c-2.237,0-4.151-1.814-4.275-4.051
						c-0.124-2.237,1.59-4.051,3.827-4.051C272.517,264.061,274.431,265.875,274.555,268.112z"/>
					<path style="fill:#CCCC6C;" d="M278.702,292.981c0.124,2.237-1.59,4.051-3.827,4.051c-2.237,0-4.151-1.813-4.275-4.051
						c-0.124-2.237,1.59-4.051,3.827-4.051C276.664,288.931,278.578,290.744,278.702,292.981z"/>
					<path style="fill:#CCCC6C;" d="M280.626,317.851c0.124,2.237-1.589,4.051-3.826,4.051c-2.237,0-4.151-1.814-4.275-4.051
						c-0.124-2.237,1.59-4.051,3.827-4.051C278.589,313.8,280.502,315.613,280.626,317.851z"/>
					<path style="fill:#CCCC6C;" d="M281.051,342.72c0.124,2.237-1.59,4.051-3.827,4.051c-2.237,0-4.151-1.814-4.275-4.051
						c-0.124-2.237,1.59-4.051,3.827-4.051S280.927,340.483,281.051,342.72z"/>
				</g>
			</g>
			<g>
				<g>
					<path style="fill:#6E0D25;" d="M333.24,500.005H136.5c11.72-52.39,22.18-89.09,22.18-89.09h158.98c0,0,2.75,13.16,6.66,34.96
						c0.13,0.74,0.27,1.5,0.4,2.26C327.25,462.375,330.23,480.055,333.24,500.005z"/>
					<g>
						<path style="fill:#450314;" d="M281.65,457.295c0,0.08-0.05,0.14-0.12,0.16c-1.71,0.33-3.42,0.64-5.14,0.89
							c-1.72,0.27-3.45,0.48-5.18,0.65c-1.73,0.17-3.47,0.29-5.21,0.36c-1.66,0.05-3.32,0.08-4.99-0.03
							c0.46,6.66,0.88,13.34,1.28,20.01c0.41,6.75,0.76,13.5,1.04,20.26c0.01,0.14,0.01,0.27,0.02,0.41h-2.87
							c-0.01-0.09-0.01-0.19-0.02-0.28l-0.59-10.11l-0.46-10.12c-0.26-6.75-0.44-13.5-0.54-20.26v-0.18
							c-0.02-1.02,0.8-1.86,1.82-1.87c0.08,0,0.18,0,0.26,0.01c1.54,0.2,3.31,0.32,4.99,0.37c1.7,0.05,3.42,0.06,5.14,0.05
							c3.44-0.06,6.9-0.22,10.39-0.46h0.02C281.57,457.155,281.64,457.215,281.65,457.295z"/>
					</g>
					<g>
						<path style="fill:#450314;" d="M226.13,410.915c-0.05,3.18-0.44,6.36-1.28,9.43c-0.91,3.06-2.22,5.98-3.88,8.7
							c-1.64,2.74-3.72,5.19-5.93,7.46c-2.23,2.28-4.68,4.33-7.27,6.17c-5.13,3.78-10.78,6.82-16.62,9.36
							c-2.93,1.26-5.91,2.4-8.93,3.42c-2.79,0.97-5.58,1.85-8.48,2.58c-0.18,1.11-0.37,2.21-0.54,3.32c-1,5.96-1.91,11.93-2.85,17.9
							c-1.17,6.91-2.26,13.83-3.35,20.75h-1.76c1.01-7.02,2.06-14.04,3.14-21.06c1.83-11.96,3.75-23.9,5.83-35.81
							c1.9-10.77,3.86-21.51,6.09-32.22h1.33c-0.84,4.9-1.7,9.79-2.47,14.7c-1.04,5.95-2.04,11.9-3,17.87
							c-0.64,4.16-1.37,8.31-2.07,12.47c2.51-0.77,5.03-1.58,7.49-2.51c2.96-1.04,5.87-2.18,8.72-3.45
							c2.84-1.31,5.69-2.57,8.42-4.05c2.73-1.47,5.37-3.11,7.89-4.9c5.14-3.42,9.65-7.72,13.14-12.76c1.73-2.53,3.13-5.28,4.18-8.2
							c1.06-2.92,1.61-6.01,2-9.17H226.13z"/>
						<path style="fill:#450314;" d="M324.723,448.135c-2.76-2.28-5.25-4.9-7.44-7.77c-1.54-2.13-2.91-4.37-4.08-6.72
							c-1.13-2.37-2.07-4.82-2.74-7.35c-0.27-1.27-0.64-2.52-0.81-3.82l-0.31-1.91l-0.2-1.94c-0.17-2.58-0.16-5.16,0.1-7.71h0.15
							c0.03,5.08,0.75,10.16,2.24,15.02c0.8,2.41,1.72,4.78,2.89,7.04c1.17,2.25,2.51,4.41,4.02,6.45c1.73,2.32,3.67,4.47,5.78,6.45
							C324.453,446.615,324.593,447.375,324.723,448.135z"/>
					</g>
				</g>
				<g>
					<polygon style="fill:#372440;" points="317.533,410.915 158.683,410.915 169.003,361.695 315.153,361.695 					"/>
					<g>
						<path style="fill:#DCAB6B;" d="M297.64,361.695c-0.95-1.09-2.19-1.93-3.6-2.38c-0.75-0.23-1.55-0.36-2.38-0.36h-32.2
							c-2.39,0-4.54,1.06-5.98,2.74c-1.2,1.39-1.92,3.19-1.92,5.15v38.92c0,1.96,0.72,3.76,1.92,5.15c1.44,1.68,3.59,2.74,5.98,2.74
							h32.2c2.39,0,4.53-1.06,5.98-2.74c0.03-0.04,0.06-0.07,0.09-0.11c1.13-1.37,1.82-3.13,1.82-5.04v-38.92
							C299.55,364.885,298.82,363.085,297.64,361.695z M258.57,389.805h16.99c1.93,0,3.5-1.56,3.5-3.5s-1.57-3.5-3.5-3.5h-16.99
							v-15.96c0-0.49,0.4-0.89,0.89-0.89h32.2c0.49,0,0.89,0.4,0.89,0.89v38.92c0,0.49-0.4,0.89-0.89,0.89h-32.2
							c-0.49,0-0.89-0.4-0.89-0.89V389.805z"/>
						<g>
							<path style="fill:#17121F;" d="M242.445,386.305c0,2.016-1.367,3.65-3.053,3.65c-1.686,0-3.053-1.634-3.053-3.65
								s1.367-3.65,3.053-3.65C241.078,382.655,242.445,384.29,242.445,386.305z"/>
							<path style="fill:#17121F;" d="M221.814,386.305c0,2.016-1.367,3.65-3.053,3.65c-1.686,0-3.053-1.634-3.053-3.65
								s1.367-3.65,3.053-3.65C220.447,382.655,221.814,384.29,221.814,386.305z"/>
							<path style="fill:#17121F;" d="M201.184,386.305c0,2.016-1.367,3.65-3.053,3.65c-1.686,0-3.053-1.634-3.053-3.65
								s1.367-3.65,3.053-3.65C199.817,382.655,201.184,384.29,201.184,386.305z"/>
						</g>
					</g>
				</g>
			</g>
			<g>
				<g>
					<defs>
						<path id="SVGID_00000147928528587728488180000002885827277976123534_" d="M258.817,241.569
							c-20.158-13.077-42.985-23.814-42.985-23.814l3.525-41.086h37.986l1.766,43.438L258.817,241.569z"/>
					</defs>
					<use xlink:href="#SVGID_00000147928528587728488180000002885827277976123534_"  style="overflow:visible;fill:#F48161;"/>
					<clipPath id="SVGID_00000160890869711039919380000006717079534708432049_">
						<use xlink:href="#SVGID_00000147928528587728488180000002885827277976123534_"  style="overflow:visible;"/>
					</clipPath>
					<path style="clip-path:url(#SVGID_00000160890869711039919380000006717079534708432049_);fill:#CE6042;" d="M221.225,176.669
						c0.636,21.642,12.89,35.646,37.875,31.668v-31.668H221.225z"/>
				</g>
				<g>
					<g>
						<g>
							<g>
								<path style="fill:#6E0D25;" d="M282.326,84.271l-91.855,23.752l0.033-10.665l0.1-30.469c0,0,16.006-8.177,38.497-14.745
									c42.809-12.523,46.226-3.384,46.226-3.384l4.578,23.221L282.326,84.271z"/>
							</g>
							<path style="fill:#DCAB6B;" d="M190.505,97.357c7.049-1.742,17.664-4.545,28.794-7.48
								c15.044-3.997,29.656-9.521,35.893-11.743c15.74-5.606,21.778-6.153,24.714-6.153l2.422,12.29l-91.855,23.752L190.505,97.357
								z"/>
							<g>
								<path style="fill:#450314;" d="M209.633,76.685c2.915-1.43,6.037-2.283,9.213-2.842c1.59-0.29,3.202-0.434,4.826-0.537
									c1.623-0.085,3.26-0.027,4.899,0.077c0.818,0.072,1.636,0.216,2.452,0.322c0.803,0.159,1.657,0.312,2.415,0.498
									c1.465,0.39,2.948,0.683,4.429,0.951c1.484,0.225,2.979,0.42,4.481,0.424c1.499,0.023,3.036-0.086,4.484-0.652l0.042-0.016
									c0.049-0.019,0.104,0.005,0.124,0.054c0.016,0.041,0.001,0.087-0.033,0.112c-1.328,0.955-2.919,1.321-4.479,1.548
									c-1.573,0.212-3.165,0.208-4.743,0.097c-3.176-0.193-6.216-1.172-9.345-1.347c-3.123-0.279-6.275-0.224-9.406,0.04
									c-3.128,0.288-6.25,0.746-9.308,1.466c-0.053,0.012-0.107-0.021-0.119-0.074c-0.011-0.046,0.012-0.092,0.053-0.112
									L209.633,76.685z"/>
							</g>
						</g>
						<g>
							<path style="fill:#6E0D25;" d="M316.79,70.758c9.016,4.489,9.211,17.866,2.373,25.646
								c-8.213,9.345-28.792,21.243-77.805,27.316c-35.89,4.447-85.54,3.334-86.233-5.241c-0.693-8.575,18.052-9.321,65.711-21.155
								c24.953-6.196,43.26-11.444,57.54-17.842C294.68,72.177,308.387,66.574,316.79,70.758z"/>
							<path style="fill:#17121F;" d="M280.673,100.786c12.042-5.219,19.082-10.255,20.119-8.494
								c0.489,0.829-0.497,2.691-1.521,3.823c-3.165,3.495-16.701,13.148-66.676,21.048c-9.662,1.527-36.164,3.293-45.161,3.138
								C219.684,116.807,258.822,110.256,280.673,100.786z"/>
						</g>
					</g>
					<g>
						<polygon style="fill:#372440;" points="285.461,121.704 290.017,152.728 285.547,154.545 						"/>
						<path style="fill:#F48161;" d="M285.627,125.04l-0.116,43.158c-0.017,16.984-13.916,30.85-30.884,30.801
							c-28.329-0.017-51.434-23.254-51.384-51.55l0.017-14.596v-7.962c0-1.741,0.116-3.45,0.332-5.125
							c0.066-0.481,0.133-0.962,0.216-1.443c9.587-1.261,19.389-2.77,28.893-4.545c4.843-0.879,9.603-1.841,14.198-2.853
							c11.959-2.637,22.872-5.706,31.481-9.189c0.912,1.343,1.758,2.753,2.521,4.213c2.057,3.881,3.483,8.144,4.213,12.639
							c0,0.083,0,0.116,0,0.116c0.149,0.929,0.249,1.858,0.332,2.803C285.544,122.684,285.61,123.845,285.627,125.04z"/>
						<g>
							<g>
								<g>
									<path style="fill:#6E0D25;" d="M240.514,143.624l-3.186-0.671c0.277-1.314,2.87-12.878,8.621-14.277
										c0.853-0.206,1.718-0.043,2.504,0.475c3.349,2.211,5.124,11.941,5.445,13.869l-3.212,0.536
										c-0.94-5.621-2.723-11.586-4.035-11.699C243.877,131.62,241.453,139.165,240.514,143.624z"/>
								</g>
								<g>
									<path style="fill:#6E0D25;" d="M277.315,143.566c-0.793-4.287-2.826-12.143-5.225-11.781
										c-1.378,0.208-2.667,6.219-3.47,11.724l-3.014-0.44c0.405-2.774,1.957-11.974,4.926-13.908
										c0.69-0.451,1.453-0.578,2.204-0.37c4.971,1.382,7.183,12.089,7.576,14.222L277.315,143.566z"/>
								</g>
							</g>
							<path style="fill:#372440;" d="M256.516,155.364c-0.958-0.001-1.933,0.142-2.854,0.503c-2.202,0.861-3.922,2.479-5.842,3.766
								c-2.334,1.566-5.117,2.793-7.962,3.154c-2.367,0.301-4.775,0.047-7.093-0.439c-2.629-0.586-5.348-1.473-8.035-2.713
								c1.485,2.487,3.539,4.711,6.034,6.552c2.805,2.073,6.11,3.517,9.627,4.063c6.56,1.02,14.733-0.03,19.962-4.291
								c0.591-0.482,1.056-1.057,1.412-1.681c0.319,0.622,0.737,1.195,1.268,1.675c4.707,4.248,12.078,5.276,18,4.24
								c3.175-0.556,6.16-2.008,8.697-4.088c2.256-1.847,4.115-4.076,5.461-6.567c-2.428,1.246-4.884,2.141-7.257,2.733
								c-2.093,0.492-4.266,0.752-6.401,0.458c-2.566-0.354-5.073-1.575-7.176-3.134c-1.729-1.282-3.277-2.896-5.262-3.751
								c-0.87-0.375-1.793-0.479-2.698-0.48C264.01,155.36,259.081,155.367,256.516,155.364z"/>
							<path style="fill:#C75536;" d="M261.725,133.836c0,0-6.323,4.959-6.323,23.09h6.323h6.323
								C268.047,138.794,261.725,133.836,261.725,133.836z"/>
							<g>
								<path style="fill:#CE6042;" d="M269.165,173.911c0.842,1.231,1.091,2.622,1.125,3.978c0.006,1.358-0.247,2.717-0.772,3.965
									c-0.523,1.246-1.245,2.417-2.213,3.371c-0.952,0.961-2.108,1.737-3.501,2.13l-0.053,0.015
									c-0.055,0.016-0.112-0.016-0.128-0.071c-0.009-0.034-0.001-0.069,0.02-0.094c0.78-0.943,1.541-1.897,2.182-2.933
									c0.668-1.019,1.194-2.123,1.653-3.245c0.481-1.117,0.827-2.289,1.08-3.478c0.239-1.189,0.399-2.41,0.388-3.619
									c0-0.058,0.046-0.105,0.104-0.105c0.036,0,0.068,0.018,0.087,0.045L269.165,173.911z"/>
							</g>
							<g>
								<path style="fill:#CE6042;" d="M250.929,171.8c1.079,0.19,2.144,0.322,3.211,0.328c1.066,0.002,2.121-0.056,3.163-0.221
									c1.041-0.139,2.07-0.34,3.077-0.604c0.991-0.268,2.031-0.59,2.898-0.939l0.023-0.009c0.774-0.311,1.654,0.064,1.965,0.838
									c0.311,0.774-0.064,1.653-0.838,1.965c-0.083,0.033-0.175,0.06-0.26,0.078c-1.212,0.249-2.3,0.349-3.449,0.397
									c-1.134,0.046-2.265,0.022-3.387-0.073c-1.121-0.101-2.232-0.315-3.31-0.589C252.941,172.705,251.905,172.282,250.929,171.8
									z"/>
							</g>
						</g>
						<path style="fill:#372440;" d="M232.783,117.128c0.05,2.106,0.066,3.815,0.017,4.495c-0.216,2.952-8.625,8.177-8.625,8.177
							l3.654,26.131l-12.064,3.493l0.962-24.632l-13.468-1.941v-0.05c-0.514-4.329-0.647-8.724-0.299-13.004
							c0.033-0.464,0.066-0.912,0.133-1.377c0.232-0.033,0.481-0.066,0.713-0.1c9.587-1.261,19.389-2.77,28.893-4.545
							C232.733,114.939,232.766,116.083,232.783,117.128z"/>
						<path style="fill:#372440;" d="M285.113,118.588c0,0.083,0,0.116,0,0.116c-11.959,0-22.856-2.438-31.597-5.357
							c-2.372-0.78-4.594-1.609-6.618-2.422c11.959-2.637,22.872-5.706,31.481-9.189c0.464-0.183,0.929-0.365,1.393-0.564
							c0.813,1.493,1.509,2.986,2.09,4.429C284.532,112.135,285.046,117.725,285.113,118.588z"/>
						<g>
							<path style="fill:#F48161;" d="M216.727,134.761v0.022l-1.013,25.952c-6.124,3.371-14.54,1.807-20.158-4.208
								c-6.521-6.962-6.852-17.25-0.727-23C200.667,128.086,210.206,128.703,216.727,134.761z"/>
							<path style="fill:#CE6042;" d="M198.616,139.003c0,0,13.617-1.335,15.405,12.816L198.616,139.003z"/>
						</g>
					</g>
				</g>
			</g>
			<g>
				<g>
					<path style="fill:#372440;" d="M164.056,237.725l97.759,9.844c0,0-30.743-35.727-45.337-37.34
						c-3.665-0.405-10.368,4.555-10.368,4.555s-13.175-1.877-17.576-0.222c-1.446,0.544-4.768,3.902-8.275,7.206
						c-2.588,2.438-8.163,1.894-10.723,4.5C164.871,231.016,164.056,237.725,164.056,237.725z"/>
					<g>
						<g>
							<path style="fill:#17121F;" d="M180.544,224.54c5.215,0.012,10.399,0.594,15.542,1.38c5.142,0.806,10.239,1.888,15.279,3.193
								l3.754,1.072c1.255,0.346,2.497,0.733,3.731,1.147l3.711,1.21l3.668,1.335c2.461,0.848,4.842,1.904,7.261,2.859
								c2.4,1.003,4.753,2.116,7.131,3.169c0.05,0.022,0.073,0.081,0.051,0.131c-0.021,0.047-0.073,0.07-0.121,0.055l-0.015-0.005
								l-14.85-4.728c-1.238-0.369-2.469-0.749-3.691-1.157l-3.713-1.071c-2.454-0.779-4.952-1.399-7.429-2.085
								c-2.485-0.658-4.973-1.307-7.481-1.876c-1.245-0.327-2.5-0.607-3.758-0.875l-3.774-0.821
								c-1.259-0.28-2.525-0.516-3.791-0.764c-1.264-0.272-2.535-0.487-3.808-0.718c-2.542-0.52-5.106-0.871-7.693-1.25
								l-0.019-0.003c-0.054-0.008-0.092-0.058-0.084-0.112C180.453,224.576,180.496,224.54,180.544,224.54z"/>
						</g>
						<g>
							<path style="fill:#17121F;" d="M208.969,215.254c1.126-0.043,2.206,0.165,3.271,0.428c1.061,0.271,2.111,0.594,3.13,0.992
								c2.059,0.749,4.025,1.717,5.972,2.71c3.869,2.043,7.53,4.443,11.129,6.92c3.533,2.571,6.991,5.243,10.344,8.04
								c1.66,1.419,3.359,2.79,4.985,4.247l4.887,4.359c0.041,0.036,0.045,0.099,0.008,0.14c-0.033,0.037-0.088,0.044-0.128,0.017
								l-0.014-0.009c-3.703-2.411-7.242-4.961-10.739-7.537c-3.513-2.556-6.987-5.126-10.499-7.627
								c-1.767-1.222-3.504-2.51-5.31-3.662c-0.894-0.591-1.766-1.23-2.68-1.784c-0.918-0.547-1.81-1.149-2.719-1.715
								c-1.843-1.077-3.681-2.192-5.606-3.112c-1.895-0.991-3.889-1.839-6.005-2.208l-0.039-0.007
								c-0.052-0.009-0.088-0.059-0.078-0.111C208.886,215.288,208.925,215.256,208.969,215.254z"/>
						</g>
					</g>
				</g>
				<g>
					<g>
						<path style="fill:#372440;" d="M259.108,220.107c1.04,1.601,1.678,3.423,1.797,5.328c0.359,5.741,0.909,15.592,0.909,22.134
							l43.632-6.719c0,0-4.138-9.704-6.72-11.962c-2.235-1.956-11.039-4.391-11.039-4.391s-3.243-3.287-4.318-3.824
							c-3.668-1.833-16.16-2.794-16.16-2.794s-4.734-5.027-8.402-5.169L259.108,220.107z"/>
					</g>
					<g>
						<g>
							<path style="fill:#17121F;" d="M267.293,217.823c1.233,2.009,2.074,4.227,2.597,6.516c0.514,2.288,0.731,4.661,0.508,7.007
								c-0.013,0.59-0.154,1.166-0.242,1.747c-0.1,0.58-0.178,1.164-0.361,1.725l-0.473,1.698c-0.198,0.552-0.427,1.094-0.64,1.641
								c-0.379,1.115-1.02,2.111-1.538,3.161c-0.581,1.016-1.278,1.963-1.911,2.947c-0.029,0.044-0.088,0.057-0.132,0.029
								c-0.036-0.023-0.051-0.065-0.041-0.104l0.011-0.042c0.315-1.203,0.8-2.251,1.15-3.35l0.522-1.624
								c0.076-0.272,0.197-0.523,0.269-0.794l0.206-0.811c0.128-0.541,0.283-1.068,0.435-1.591l0.309-1.605
								c0.132-0.526,0.2-1.061,0.269-1.596c0.064-0.535,0.177-1.063,0.174-1.603c0.041-0.535,0.104-1.071,0.132-1.608
								c0.002-0.538-0.023-1.076,0.005-1.618c0.005-0.541-0.04-1.082-0.056-1.628c-0.027-0.545-0.106-1.085-0.132-1.64
								c-0.232-2.198-0.645-4.413-1.229-6.745l-0.009-0.037c-0.013-0.052,0.018-0.104,0.07-0.117
								C267.23,217.77,267.272,217.788,267.293,217.823z"/>
						</g>
						<g>
							<path style="fill:#17121F;" d="M287.21,226.342c-0.306,2.008-1.086,3.891-2.07,5.645c-0.994,1.753-2.25,3.346-3.659,4.786
								c-1.461,1.389-3.065,2.619-4.78,3.665c-0.842,0.548-1.758,0.969-2.633,1.459c-0.908,0.424-1.834,0.812-2.749,1.219
								c-0.048,0.021-0.104,0-0.126-0.048c-0.017-0.037-0.007-0.079,0.02-0.106l0.031-0.031c0.764-0.762,1.574-1.353,2.348-1.981
								l1.142-0.943c0.376-0.313,0.782-0.569,1.132-0.906c0.71-0.656,1.498-1.178,2.158-1.856c0.732-0.589,1.387-1.249,2.054-1.894
								c0.658-0.648,1.317-1.302,1.908-2.011c0.326-0.333,0.635-0.679,0.914-1.048c0.286-0.365,0.601-0.714,0.88-1.09
								c1.139-1.494,2.224-3.065,3.233-4.881l0.022-0.039c0.025-0.046,0.083-0.062,0.129-0.037
								C287.197,226.265,287.215,226.304,287.21,226.342z"/>
						</g>
					</g>
				</g>
				<path style="fill:#372440;" d="M261.258,247.983c1.922,5.344,3.148,9.987,4.102,14.716c0.902,4.691,1.554,9.325,1.843,14.005
					c0.272,4.679,0.315,9.408-0.147,14.27c-0.228,2.434-0.519,4.895-1.066,7.421c-0.502,2.523-1.11,5.085-2.239,7.785
					c-3.884-4.231-6.218-8.899-8.001-13.701c-1.675-4.823-2.75-9.8-3.023-14.871c-0.307-5.062,0.039-10.198,1.271-15.267
					c0.647-2.532,1.461-5.041,2.62-7.479C257.785,252.446,259.165,250.026,261.258,247.983z"/>
				<path style="fill:#372440;" d="M264.231,247.178c5.796,1.096,10.662,4.491,14.718,8.391c4.043,3.98,7.226,8.752,9.581,13.853
					c2.243,5.146,3.731,10.607,4.141,16.161c0.296,2.759,0.096,5.579-0.103,8.339c-0.148,1.387-0.433,2.78-0.762,4.161
					c-0.327,1.38-0.683,2.748-1.204,4.109c-1.69-2.457-2.851-4.884-4.04-7.256c-1.303-2.341-2.199-4.717-3.344-6.982
					c-2.047-4.603-4.087-9.007-5.986-13.445c-2.02-4.379-3.986-8.745-6.115-13.196C268.978,256.833,266.832,252.319,264.231,247.178
					z"/>
				<path style="fill:#372440;" d="M267.692,246.272c0.192,3.466-2.463,6.276-5.929,6.276c-3.466,0-6.432-2.81-6.623-6.276
					c-0.192-3.466,2.463-6.276,5.929-6.276C264.535,239.996,267.5,242.806,267.692,246.272z"/>
			</g>
			<g>
				<g>
					<path style="fill:#FFFFB3;" d="M164.362,238.271c-11.274,10.121-16.085,27.668-11.643,43.766
						c3.882,14.067,7.789,23.234,13.5,36.649c5.158,12.116,10.724,24.145,17.39,35.515c6.059,10.333,13.188,20.882,24.918,25.198
						c7.597,2.795,16.251,2.381,23.726-0.609c11.065-4.427,20.89-12.843,29.989-20.349c9.594-7.914,36.14-37.786,38.744-40.499
						l-25.334-23.599l-39.558,16.489c0,0-4.704-15.814-4.704-15.814c-3.944-13.147-16.087-46.632-16.087-46.632
						c-0.743-1.894-1.638-3.654-2.665-5.276L164.362,238.271z"/>
					<g>
						<g>
							<path style="fill:#CCCC6C;" d="M235.633,310.677c-2.734,0.051-5.442,0.182-8.073,0.681c-2.629,0.419-5.195,1.093-7.534,2.112
								c-2.323,1.043-4.439,2.418-5.955,4.285c-0.377,0.465-0.741,0.938-1.057,1.446l-0.112,0.169l-0.028,0.061
								c-0.025,0.058-0.057,0.152-0.085,0.254c-0.059,0.206-0.107,0.468-0.142,0.739c-0.12,1.106-0.11,2.384,0.044,3.551
								c0.079,0.575,0.211,1.16,0.369,1.543c0.055,0.18,0.206,0.302,0.001,0.144c-0.094-0.077-0.443-0.213-0.726-0.157
								c-0.276,0.044-0.367,0.145-0.372,0.153c0.009,0.014,0.143-0.098,0.326-0.363l0.645-0.888
								c0.452-0.572,0.911-1.134,1.398-1.667c1.956-2.126,4.199-3.892,6.534-5.439c2.37-1.501,4.817-2.833,7.378-3.892
								c2.552-1.066,5.133-2.04,7.818-2.671l0.007-0.001c0.054-0.013,0.107,0.021,0.12,0.074c0.012,0.05-0.016,0.1-0.063,0.117
								c-5.107,1.866-10.015,4.354-14.446,7.508c-2.206,1.586-4.272,3.379-6.051,5.428c-0.446,0.511-0.86,1.047-1.268,1.588
								l-0.577,0.836c-0.19,0.283-0.393,0.586-0.689,0.822c-0.147,0.116-0.328,0.22-0.544,0.248
								c-0.216,0.029-0.444-0.048-0.603-0.169c-0.322-0.247-0.493-0.577-0.643-0.897c-0.284-0.652-0.433-1.333-0.547-2.015
								c-0.209-1.366-0.259-2.756-0.061-4.134c0.111-0.675,0.26-1.405,0.693-1.988c0.374-0.582,0.801-1.124,1.247-1.653
								c1.836-2.077,4.253-3.559,6.816-4.524c2.572-0.971,5.293-1.474,8.018-1.693c2.729-0.208,5.474-0.159,8.191,0.196
								c0.054,0.007,0.092,0.057,0.085,0.111c-0.006,0.049-0.048,0.085-0.096,0.086L235.633,310.677z"/>
						</g>
						<g>
							<path style="fill:#CCCC6C;" d="M275.689,294.435l-39.528,16.561c-0.091,0.038-0.195-0.005-0.234-0.096l-0.007-0.018
								l-4.705-15.771c-1.589-5.245-3.34-10.445-5.102-15.639c-3.543-10.383-7.2-20.728-10.907-31.053
								c-0.019-0.052,0.008-0.109,0.06-0.128c0.049-0.018,0.103,0.006,0.124,0.052l0.003,0.008c1.148,2.502,2.223,5.031,3.285,7.565
								c1.06,2.535,2.165,5.054,3.143,7.619c1.994,5.116,4.034,10.219,5.928,15.377l2.774,7.767
								c0.899,2.599,1.742,5.224,2.571,7.871c1.624,5.241,3.108,10.524,4.655,15.788l-2.326-1.105l9.958-3.958l10.024-3.801
								c3.349-1.248,6.671-2.562,10.058-3.718c3.377-1.182,6.735-2.408,10.146-3.506l0.008-0.003
								c0.052-0.017,0.109,0.012,0.126,0.065C275.762,294.362,275.736,294.415,275.689,294.435z"/>
						</g>
						<g>
							<path style="fill:#CCCC6C;" d="M262.177,358.363c3.541-3.037,6.815-6.379,10.082-9.715c3.255-3.35,6.448-6.761,9.628-10.183
								c3.202-3.401,6.376-6.831,9.54-10.268l9.485-10.325c0.037-0.04,0.1-0.043,0.14-0.006c0.036,0.033,0.042,0.088,0.016,0.128
								l-0.011,0.017c-1.306,1.967-2.743,3.816-4.109,5.733c-1.424,1.863-2.863,3.714-4.357,5.517
								c-1.459,1.834-3.02,3.577-4.534,5.362c-1.551,1.753-3.131,3.478-4.71,5.207c-1.621,1.689-3.23,3.391-4.885,5.049
								c-1.678,1.636-3.332,3.298-5.081,4.868c-3.448,3.178-7.079,6.229-11.078,8.771l-0.009,0.006
								c-0.046,0.03-0.108,0.016-0.138-0.031C262.131,358.45,262.14,358.395,262.177,358.363z"/>
						</g>
					</g>
					<path style="fill:#FFFFB3;" d="M183.609,354.201"/>
				</g>
				<g>
					<g>
						<path style="fill:#6E0D25;" d="M335.533,282.095c-4.17,1.93-12.33,3.25-21.7,3.25c-9.39,0-17.55-1.32-21.72-3.25
							c-7.32-3.73-18.33-12.47-15.79-26.87c1.53-8.74,8.51-18.6,9.24-30.41c7.88,1.71,17.8,2.65,28.26,2.65
							c10.47,0,20.37-0.93,28.25-2.65c0.74,11.82,7.72,21.67,9.25,30.41C353.863,269.625,342.843,278.365,335.533,282.095z"/>
						<path style="fill:#450314;" d="M342.073,224.815c-7.88,1.72-17.78,2.65-28.25,2.65c-10.46,0-20.38-0.94-28.26-2.65
							c0.12-1.81,0.08-3.67-0.14-5.58h56.79C341.993,221.145,341.953,223.005,342.073,224.815z"/>
						<g>
							<ellipse style="fill:#BD9C82;" cx="313.824" cy="218.012" rx="31.797" ry="5.302"/>
							<ellipse style="fill:#17121F;" cx="313.825" cy="217.007" rx="25.515" ry="2.223"/>
						</g>
						<path style="fill:#FFFFB3;" d="M408.85,149.705c-7.43,0-13.56,5.49-14.6,12.63c-0.83,0.43-1.75,0.85-2.71,1.24
							c-9.49,3.86-19.95,5.17-30.02,6.63l-6.55,0.97c-5.45,0.81-13.09,1.48-16.56,6.41c-2.51,3.56-1.74,8.66,1.39,11.51
							c2.11,1.92,4.83,3,7.49,3.92c3.9,1.35,7.51,2.34,11.04,3.42c-4.48-0.48-9.01-0.93-13.58-1.25c-4.43-0.29-8.91-0.47-13.54-0.34
							c-2.32,0.09-4.68,0.25-7.13,0.58c-4.98,0.67-10.44,2.29-14.19,5.8c-4.17,3.89-4.18,9.2-1.34,13.61
							c0.39,0.62,0.84,1.22,1.35,1.8c0.79,0.9,1.65,1.76,2.57,2.58c0.45,0.01,0.9,0.01,1.35,0.01c8.25,0,15.562-0.332,20.222-0.862
							c-0.275-4.375-10.932-8.848-11.662-9.338c1.09-0.39,2.37-0.71,3.71-0.96c1.8-0.34,3.72-0.55,5.69-0.66
							c3.95-0.25,8.06-0.16,12.2,0.07c8.48,0.46,16.89,1.6,25.31,2.61c3.06,0.37,6.2,0.77,9.32,0.88c3.52,0.12,7.56-0.42,9.37-3.87
							c1.58-3.02,0.86-6.93-0.91-9.7c-1.09-1.7-2.28-2.88-3.43-3.86c-2.3-1.94-4.5-3.18-6.67-4.32c-1.59-0.81-3.15-1.52-4.71-2.2
							c5.58,0,11.3-0.02,17.26-0.3c11.04-0.53,24.33-2.17,30.89-12.3c1.82-2.77,3.02-6.53,3.22-9.94
							C423.63,156.315,417.01,149.705,408.85,149.705z M349.71,178.005c0.01-0.01,0.08,0.02,0.29,0.2
							C349.83,178.105,349.71,178.015,349.71,178.005z M319.36,210.895c0.01-0.05,0.05-0.13,0.13-0.22
							c-0.02,0.03-0.03,0.06-0.04,0.09l-0.11,0.22C319.35,210.955,319.35,210.925,319.36,210.895z"/>
						
							<path style="fill:none;stroke:#BD9C82;stroke-width:4.1466;stroke-linecap:round;stroke-linejoin:round;stroke-miterlimit:10;" d="
							M264.348,171.8c0,0,28.205,7.781,36.573,48.594"/>
					</g>
					<g>
						<g>
							<path style="fill:#F48161;" d="M358.201,261.144c-2.163-1.653-4.925-1.902-7.224-0.894c-0.634,0.272-1.472,0.849-2.242,1.517
								c-0.645,0.521-1.234,1.121-1.574,1.619l-0.023,0.023c-3.951-3-8.39-0.792-10.439,2.038l-15.094,14.82
								c0,0-20.555,9.162-22.792-0.378c3.508-5.167,10.847-9.127,11.856-13.944c0.581-2.775-0.391-8.037-2.871-9.873
								c-3.31-2.45-7.205,2.454-11.07,6.644c-3.866,4.191-6.166,5.861-14.388,9.372c-8.986,3.838-6.689,22.255-6.689,22.255
								s4.628,11.427,9.927,15.862c6.255,5.234,15.407,7.737,15.407,7.737l31.78-15.738c1.422-0.704,2.684-1.682,3.721-2.884
								c2.807-3.257,8.843-10.287,13.677-16.098c2.936-3.529,5.429-6.607,6.486-8.118l0.668-0.951l2.14-3.023
								C361.688,267.971,361.246,263.522,358.201,261.144z"/>
						</g>
						<g>
							<path style="fill:#CE6042;" d="M320.519,297.944l11.488-7.394l-0.053,0.045l5.651-6.357c1.881-2.121,3.775-4.23,5.621-6.38
								c0.924-1.074,1.84-2.154,2.733-3.252c0.446-0.549,0.887-1.102,1.315-1.663c0.428-0.571,0.862-1.11,1.125-1.738
								c0.558-1.253,0.718-2.685,0.479-4.042c-0.243-1.364-0.923-2.624-1.837-3.673c-0.058-0.067-0.051-0.168,0.016-0.226
								c0.055-0.048,0.134-0.052,0.193-0.014l0.035,0.022c1.247,0.807,2.361,2.054,2.925,3.641c0.276,0.787,0.445,1.634,0.478,2.503
								c0.007,0.868-0.108,1.746-0.382,2.628c-0.128,0.437-0.33,0.896-0.564,1.334c-0.174,0.348-0.378,0.668-0.569,0.989
								c-0.388,0.639-0.781,1.258-1.178,1.872c-0.773,1.242-1.658,2.377-2.511,3.535l-1.298,1.717l-1.372,1.648
								c-0.927,1.087-1.814,2.207-2.787,3.249l-2.917,3.126c-0.982,1.034-2.03,2-3.055,3.005l-0.194,0.19
								c-0.099,0.097-0.214,0.181-0.329,0.247c-0.993,0.56-2.041,1.033-3.072,1.533c-1.023,0.512-2.081,0.97-3.147,1.413
								c-1.05,0.47-2.15,0.86-3.237,1.271c-1.101,0.389-2.224,0.745-3.381,1.045l-0.048,0.012c-0.085,0.022-0.172-0.029-0.194-0.114
								C320.433,298.05,320.463,297.981,320.519,297.944z"/>
						</g>
					</g>
				</g>
			</g>
		</g>
	</g>
</g>

</svg>
